# xmcd CD database file
#
# Track frame offsets:
#	150
#	20023
#	38834
#	60850
#	83465
#	102583
#	128692
#	132972
#	151364
#	165147
#	182225
#	195931
#	218830
#
# Disc length: 3365 seconds
#
# Revision: 0
# Processed by: cddbd v1.5.1PL0 Copyright (c) Steve Scherf et al.
# Submitted via: CDex 1.51
#
DISCID=9b0d230d
DTITLE=MOFO Party Band - Voodoo Dolls and Jungle Drums
DYEAR=2001
DGENRE=Blues
TTITLE0=Voodoo Doll
TTITLE1=Jungle Drums
TTITLE2=Living Proof
TTITLE3=Swamp Stomp
TTITLE4=Run Like The Devil
TTITLE5=You a Demon
TTITLE6=The Message
TTITLE7=Gettin' The Boogie On
TTITLE8=She Made My Blood Run Cold
TTITLE9=Now Dig This!
TTITLE10=Oh Baby
TTITLE11=1919 West Taylor
TTITLE12=Tired of Working
EXTD=YEAR: 2001
EXTT0=
EXTT1=
EXTT2=
EXTT3=
EXTT4=
EXTT5=
EXTT6=
EXTT7=
EXTT8=
EXTT9=
EXTT10=
EXTT11=
EXTT12=
PLAYORDER=
